<!--<?xml version="1.0" encoding="UTF-8" standalone="no"?>
<?xml-stylesheet href="/assets/css/svg-icon-default.theme.css" type="text/css"?>
<!DOCTYPE svg PUBLIC "-//W3C//DTD SVG 1.1//EN" "http://www.w3.org/Graphics/SVG/1.1/DTD/svg11.dtd">-->

<!-- "display: none" ensures the SVG doesn't take up space even though it's not being shown because of the use of symbol -->
<svg xmlns="http://www.w3.org/2000/svg" style="display:none;">
    <symbol id="icon-notebook" viewBox="0 0 688 688">
        <title>notebook</title>
        <path d="M64.189,377.58h92.947c0.01,0,0.019,0,0.029,0c14.353-4.779,26.034-11.959,26.034-26.287
			c0-14.348-11.686-26.288-26.067-26.288H64.175c-14.367,0-26.053,11.939-26.053,26.288
			C38.122,365.621,49.803,372.801,64.189,377.58z M64.189,344.124h92.933c3.838,0,6.963,3.345,6.963,7.169
			c0,3.818-3.121,7.17-6.963,7.17H64.218c-3.848,0-6.978-3.352-6.978-7.17S60.36,344.124,64.189,344.124z"
        />
        <path d="M157.165,516.186c14.353,0,26.034-11.969,26.034-26.301c0-14.35-11.69-26.273-26.067-26.273H64.179
			c-14.367,0-26.058,11.924-26.058,26.273c0,14.332,11.681,26.301,26.067,26.301h92.947
			C157.146,516.186,157.155,516.186,157.165,516.186z M64.218,497.066c-3.848,0-6.978-3.354-6.978-7.182
			c0-3.82,3.121-7.156,6.949-7.156h92.938c3.838,0,6.958,3.336,6.958,7.156c0,3.822-3.121,7.182-6.963,7.182H64.218z"
        />
        <path d="M64.189,224.636h92.947c14.372,0,26.067-11.916,26.067-26.283c0-14.348-11.686-26.292-26.067-26.292H64.175
			c-14.367,0-26.053,11.944-26.053,26.292C38.122,212.721,49.812,224.636,64.189,224.636z M64.189,191.18h92.933
			c3.838,0,6.963,3.351,6.963,7.174c0,3.824-3.116,7.165-6.949,7.165H64.189c-3.833,0-6.949-3.341-6.949-7.165
			C57.24,194.53,60.36,191.18,64.189,191.18z"/>
        <path d="M549.174,0H175.245C124.191,0,71.803,51.169,71.803,102.219v54.176c0,5.276,6.558,10.888,11.839,10.888h71.062
			c17.99,0,32.625,13.086,32.625,31.067c0,17.971-14.635,31.066-32.625,31.066H83.642c-5.277,0-11.839,6.037-11.839,11.313v66.239
			c0,5.281,6.558,8.479,11.839,8.479h71.062c17.99,0,32.625,15.471,32.625,33.461c0,17.971-14.635,33.451-32.625,33.451H83.642
			c-5.277,0-11.839,3.686-11.839,8.961v56.197c0,5.277,6.558,11.314,11.839,11.314h71.062c17.99,0,32.625,13.076,32.625,31.061
			c0,17.98-14.635,31.072-32.625,31.072H83.642c-5.277,0-11.839,5.625-11.839,10.902v54.15c0,51.055,52.388,102.23,103.442,102.23
			h373.929c51.063,0,100.952-51.176,100.952-102.23V102.219C650.122,51.169,600.233,0,549.174,0z M631.003,586.018
			c0,40.641-41.185,83.111-81.834,83.111H175.245c-40.64,0-84.324-42.471-84.324-83.111v-45.936h63.787
			c28.529,0,51.738-21.67,51.738-50.189c0-28.523-23.214-50.18-51.743-50.18H90.921v-38.236h63.787
			c28.529,0,51.733-24.068,51.733-52.568c0.005-28.529-23.209-52.58-51.738-52.58H90.921v-47.795h63.787
			c28.529,0,51.738-21.68,51.738-50.185c0-28.524-23.209-50.185-51.743-50.185H90.921v-45.945c0-40.635,43.685-83.101,84.324-83.101
			h373.929c40.645,0,81.834,42.466,81.834,83.101v483.799H631.003z"/>
        <path d="M491.442,396.555l-2.537-0.598c-3.509-1.807-53.86-25.871-72.979-34.35v-11.084c9.559-8.078,13.713-17.871,13.855-28.022
			l0.588-1.042c6.453-3.842,11.528-11.576,12.943-21.221l0.205-0.598c1.606-10.83-1.696-20.667-8.039-25.929l1.229-12.202
			c0.028-0.306,0.062-0.621,0.062-0.932c0-23.463-18.606-56.508-59.992-56.508c-41.396,0-60.012,33.045-60.012,56.508
			c0,0.311,0.019,0.626,0.048,0.932l1.2,12.202c-6.342,5.253-9.707,15.07-8.111,25.833l0.11,0.789
			c1.424,9.568,6.247,17.278,12.67,21.116l-0.401,1.051c0.144,10.166,2.825,19.969,12.384,28.032v11.031
			c-23.897,11.293-67.984,32.232-72.032,34.941c-0.65,0.432-1.114,0.891-2.06,1.406c-5.979,3.289-16.719,9.41-16.719,21.857v54.844
			c0,5.277,3.996,8.121,9.272,8.121h247.291c5.276,0,11.088-2.844,11.088-8.121v-54.85
			C511.516,406.189,497.221,399.438,491.442,396.555z M492.398,463.611H262.696l-0.01-44.492c0.54-1.506,5.392-3.814,7.217-4.818
			c1.491-0.822,2.825-1.396,3.704-1.984c4.158-2.498,48.129-23.447,75.186-36.113c3.36-1.572,4.999-4.855,4.999-8.568v-21.355
			c0-2.854-0.77-5.554-2.968-7.37c-3.518-2.906-9.167-8.966-9.167-16.919c0-0.311,0.11-0.622,0.081-0.932l-0.669-7.47
			c-0.459-4.698-3.795-8.269-8.512-8.522c-0.698-0.32-2.935-2.801-3.627-7.456l-0.101-0.779c-0.617-4.168,0.401-7.031,1.061-8.044
			c4.512-0.765,7.948-4.693,7.948-9.425c0-0.784-0.096-1.548-0.272-2.285l-1.668-16.943c0.22-14.477,11.399-36.955,40.893-36.955
			c29.485,0,40.659,22.478,40.879,36.955l-1.797,18.291c-0.268,2.687,0.617,5.354,2.428,7.351c1.42,1.568,3.312,2.61,5.363,2.987
			c0.654,0.994,1.691,3.876,1.056,8.149l-0.086,0.612c-0.697,4.746-2.958,7.212-3.212,7.446c-4.717,0.253-8.545,3.91-9.004,8.613
			l-0.731,7.47c-0.028,0.311-0.048,0.622-0.048,0.932c0,7.934-6.878,14.014-10.4,16.929c-2.188,1.816-4.431,4.512-4.431,7.359
			v21.355c0,3.686,3.088,7.041,6.409,8.627c29.213,13.947,74.192,35.225,76.998,36.668l2.447,0.727
			c7.107,3.547,9.735,5.383,9.735,6.104V463.611L492.398,463.611z" fill="currentColor"/>
    </symbol>

    <symbol id="icon-direction" viewBox="0 0 17 17">
        <title>Direction</title>
        <path d="M16.641 5.409l-2.811-3.409h-4.83v-2h-1v2h-7v7h7v8h1v-8h4.838l2.803-3.591zM9 8h-7v-5h11.358l2.001 2.426-2.009 2.574h-4.35z"/>
    </symbol>

    <symbol id="icon-mobile" viewBox="0 0 17 17">
        <title>Mobile</title>
        <path d="M12.5 0h-8c-0.827 0-1.5 0.673-1.5 1.5v14c0 0.827 0.673 1.5 1.5 1.5h8c0.827 0 1.5-0.673 1.5-1.5v-14c0-0.827-0.673-1.5-1.5-1.5zM4.5 1h8c0.276 0 0.5 0.224 0.5 0.5v1.5h-9v-1.5c0-0.276 0.224-0.5 0.5-0.5zM13 4v8h-9v-8h9zM12.5 16h-8c-0.276 0-0.5-0.224-0.5-0.5v-2.5h9v2.5c0 0.276-0.224 0.5-0.5 0.5zM9 14.5c0 0.276-0.224 0.5-0.5 0.5s-0.5-0.224-0.5-0.5 0.224-0.5 0.5-0.5 0.5 0.224 0.5 0.5z"/>
    </symbol>

    <symbol id="icon-email" viewBox="0 0 17 17">
        <title>Email</title>
        <path d="M0 2v13h17v-13h-17zM8.494 9.817l-6.896-6.817h13.82l-6.924 6.817zM5.755 8.516l-4.755 4.682v-9.383l4.755 4.701zM6.466 9.219l2.026 2.003 1.996-1.966 4.8 4.744h-13.677l4.855-4.781zM11.201 8.555l4.799-4.725v9.467l-4.799-4.742z"
              fill="curentColor"/>
    </symbol>

    <symbol id="icon-time" viewBox="0 0 17 17">
        <title>Time</title>
        <path d="M8.666 0c-4.687 0-8.5 3.813-8.5 8.5s3.813 8.5 8.5 8.5 8.5-3.813 8.5-8.5c0-4.687-3.813-8.5-8.5-8.5zM8.666 16c-4.136 0-7.5-3.364-7.5-7.5s3.364-7.5 7.5-7.5 7.5 3.364 7.5 7.5-3.364 7.5-7.5 7.5zM14 9v1h-6v-5h1v4h5z"/>
    </symbol>

    <symbol id="icon-user" viewBox="0 0 17 17">
        <title>User</title>
        <path d="M17 16.488c-0.063-2.687-2.778-4.999-6.521-5.609v-1.374c0.492-0.473 0.842-1.207 1.071-1.833 0.332-0.166 0.624-0.536 0.794-1.033 0.238-0.688 0.146-1.323-0.206-1.629 0.028-0.238 0.046-0.481 0.015-0.723-0.079-0.663 0.065-1.038 0.194-1.368 0.106-0.277 0.229-0.591 0.106-0.945-0.442-1.273-1.727-1.974-3.618-1.974l-0.264 0.005c-1.313 0.047-1.707 0.6-1.971 1.115-0.033 0.062-0.077 0.146-0.077 0.151-1.712 0.153-1.697 1.569-1.684 2.707l0.003 0.369c0 0.205 0.009 0.419 0.026 0.639-0.425 0.3-0.504 1.005-0.179 1.737 0.185 0.415 0.452 0.729 0.749 0.892 0.243 0.674 0.625 1.47 1.179 1.965v1.283c-3.798 0.589-6.554 2.907-6.617 5.625l-0.012 0.512h17.023l-0.011-0.512zM1.054 16c0.392-2.094 2.859-3.821 6.122-4.204l0.441-0.052v-2.666l-0.216-0.15c-0.393-0.272-0.791-0.947-1.090-1.851l-0.083-0.281-0.294-0.051c-0.053-0.019-0.208-0.153-0.33-0.428-0.075-0.168-0.104-0.312-0.112-0.415l0.51 0.143-0.096-0.749c-0.042-0.33-0.064-0.651-0.064-0.95l-0.003-0.38c-0.015-1.341 0.051-1.634 0.773-1.699 0.545-0.048 0.752-0.449 0.876-0.689 0.15-0.292 0.28-0.543 1.12-0.574l0.227-0.004c0.829 0 2.279 0.169 2.669 1.282 0 0.043-0.052 0.177-0.090 0.275-0.145 0.374-0.364 0.939-0.254 1.853 0.024 0.188-0.007 0.424-0.040 0.675l-0.089 0.805 0.441-0.048c0.008 0.104-0.004 0.269-0.075 0.472-0.097 0.289-0.242 0.438-0.237 0.454h-0.36l-0.114 0.342c-0.283 0.853-0.65 1.497-1.009 1.768l-0.198 0.15v2.726l0.438 0.055c3.211 0.401 5.641 2.123 6.030 4.192h-14.893z"/>
    </symbol>

    <symbol id="icon-comment" viewBox="0 0 17 17">
        <title>Comment</title>
        <path d="M15.5 0h-14c-0.827 0-1.5 0.673-1.5 1.5v10c0 0.827 0.673 1.5 1.5 1.5h0.5v4.102l4.688-4.102h8.812c0.827 0 1.5-0.673 1.5-1.5v-10c0-0.827-0.673-1.5-1.5-1.5zM16 11.5c0 0.275-0.224 0.5-0.5 0.5h-9.188l-3.312 2.898v-2.898h-1.5c-0.276 0-0.5-0.225-0.5-0.5v-10c0-0.275 0.224-0.5 0.5-0.5h14c0.276 0 0.5 0.225 0.5 0.5v10z"/>
    </symbol>

    <symbol id="icon-comment-alt" viewBox="0 0 17 17">
        <title>Commant Alt</title>
        <path
                d="M 1.5 0 C 0.673 0 0 0.673 0 1.5 L 0 11.5 C 0 12.327 0.673 13 1.5 13 L 2 13 L 2 17.101562 L 6.6875 13 L 15.5 13 C 16.327 13 17 12.327 17 11.5 L 17 1.5 C 17 0.673 16.327 0 15.5 0 L 1.5 0 z M 1.5 1 L 15.5 1 C 15.776 1 16 1.225 16 1.5 L 16 11.5 C 16 11.775 15.776 12 15.5 12 L 6.3125 12 L 3 14.898438 L 3 12 L 1.5 12 C 1.224 12 1 11.775 1 11.5 L 1 1.5 C 1 1.225 1.224 1 1.5 1 z "
                id="path4156"/>
        <path fill="currentColor"
              d="M 3,3 14,3 14,4 3,4 3,3 Z"
              id="path4152"/>
        <path fill="currentColor"
              d="M 3,5 14,5 14,6 3,6 3,5 Z"
              id="path4150"/>
        <path fill="currentColor"
              d="M 3,7 9,7 9,8 3,8 3,7 Z"
              id="path3340"/>
    </symbol>


    <symbol id="icon-face-smile" viewBox="0 0 17 17">
        <title>Face Smile</title>
        <path
                d="M 8.5 0 C 3.813 0 0 3.813 0 8.5 C 0 13.187 3.813 17 8.5 17 C 13.187 17 17 13.187 17 8.5 C 17 3.813 13.187 0 8.5 0 z M 8.5 1 C 12.636 1 16 4.364 16 8.5 C 16 12.636 12.636 16 8.5 16 C 4.364 16 1 12.636 1 8.5 C 1 4.364 4.364 1 8.5 1 z "
        />
        <path
                d="m 13,9 c 0,2.481 -2.019,4.5 -4.5,4.5 C 6.019,13.5 4,11.481 4,9 4,8.724 4.224,8.5 4.5,8.5 4.776,8.5 5,8.724 5,9 5,10.93 6.57,12.5 8.5,12.5 10.43,12.5 12,10.93 12,9 12,8.724 12.224,8.5 12.5,8.5 12.776,8.5 13,8.724 13,9 Z"
                fill="currentColor"/>
        <path
                d="m 4.5,5.5 c 0,-0.552 0.448,-1 1,-1 0.552,0 1,0.448 1,1 0,0.552 -0.448,1 -1,1 -0.552,0 -1,-0.448 -1,-1 z"
                fill="currentColor"/>
        <path
                d="m 10.5,5.5 c 0,-0.552 0.448,-1 1,-1 0.552,0 1,0.448 1,1 0,0.552 -0.448,1 -1,1 -0.552,0 -1,-0.448 -1,-1 z"
                fill="currentColor"/>
    </symbol>


    <symbol id="icon-close" viewBox="0 0 17 17">
        <title>Close</title>
        <path d="M9.207 8.5l6.646 6.646-0.707 0.707-6.646-6.646-6.646 6.646-0.707-0.707 6.646-6.646-6.647-6.646 0.707-0.707 6.647 6.646 6.646-6.646 0.707 0.707-6.646 6.646z"
        />
    </symbol>

    <symbol id="icon-xxx" viewBox="0 0 1024 1024">
        <title></title>

    </symbol>

    <symbol id="icon-xxx" viewBox="0 0 1024 1024">
        <title></title>

    </symbol>


</svg>